<svg width="301" height="352" viewBox="0 0 301 352" fill="none" xmlns="http://www.w3.org/2000/svg">
<path d="M0 118.194V262.653V326.065C0 335.425 11.3166 340.113 17.935 333.494L131.852 219.578V202.768C131.852 202.768 112.941 202.768 112.941 183.857C112.941 164.946 131.852 164.946 131.852 164.946V118.194H85.6248C85.6248 118.194 85.6248 95.6055 63.0366 95.6055C40.4485 95.6055 40.4485 118.194 40.4485 118.194H0Z" fill="#0096FE"/>
<path d="M32.569 105.061H0V10.5061C0 4.70374 4.70375 0 10.5061 0H131.852V36.7715C131.852 36.7715 112.941 36.7715 112.941 55.6825C112.941 74.5934 131.852 74.5934 131.852 74.5934V105.061H93.5042C93.5042 105.061 93.5042 82.4727 63.0366 82.4727C32.5691 82.4727 32.569 105.061 32.569 105.061Z" fill="#3BADFC"/>
<path d="M146.56 165.471V118.719H189.635C189.635 118.719 189.635 140.256 211.173 140.256C232.71 140.256 232.71 118.719 232.71 118.719H301V165.471C301 165.471 301 220.103 246.368 220.103H146.56V203.293C146.56 203.293 132.377 203.293 132.377 184.382C132.377 165.471 146.56 165.471 146.56 165.471Z" fill="#59D4FF"/>
<path d="M195.464 32.5562C182.704 53.1084 195.464 102.31 195.464 102.31C195.464 102.31 252.73 102.14 270.137 77.7671C285.366 56.4445 293.312 -7.48777 270.137 10.5966C246.963 28.681 211.532 6.67757 195.464 32.5562Z" fill="#2DBD6E"/>
<path d="M205.909 87.2448C223.089 49.4868 238.258 38.1265 268.573 23.6362" stroke="#239456" stroke-opacity="0.1" stroke-width="1.48276"/>
<path d="M264.759 43.8991C256.927 47.1806 253.068 46.777 246.499 44.7367" stroke="#239456" stroke-opacity="0.1" stroke-width="1.48276"/>
<path d="M257.03 59.4611C244.57 64.6812 238.432 64.0392 227.983 60.7935" stroke="#239456" stroke-opacity="0.1" stroke-width="1.48276"/>
<path d="M250.164 76.6573C236.182 82.5152 229.294 81.7948 217.568 78.1525" stroke="#239456" stroke-opacity="0.1" stroke-width="1.48276"/>
<path d="M234.069 36.7443C231.879 33.9135 231.622 32.2985 231.736 29.4016" stroke="#239456" stroke-opacity="0.1" stroke-width="1.48276"/>
<path d="M217.716 53.2628C214.05 48.5252 213.621 45.8225 213.812 40.9743" stroke="#239456" stroke-opacity="0.1" stroke-width="1.48276"/>
<path d="M208.458 70.6221C203.642 64.3988 203.078 60.8486 203.329 54.48" stroke="#239456" stroke-opacity="0.1" stroke-width="1.48276"/>
<path d="M183.484 18.6288C187.671 25.3725 183.484 41.5168 183.484 41.5168C183.484 41.5168 164.694 41.4611 158.982 33.4637C153.985 26.4672 151.378 5.4894 158.982 11.4233C166.586 17.3573 178.212 10.1374 183.484 18.6288Z" fill="#2DBD6E"/>
<path d="M192.402 10.2903C190.819 13.2038 192.402 20.1786 192.402 20.1786C192.402 20.1786 199.505 20.1545 201.664 16.6994C203.553 13.6767 204.539 4.61366 201.664 7.1773C198.79 9.74094 194.395 6.62174 192.402 10.2903Z" fill="#2DBD6E"/>
<path d="M180.057 36.5736C174.419 24.1842 169.442 20.4566 159.495 15.702" stroke="#239456" stroke-opacity="0.1" stroke-width="1.48276"/>
<path d="M160.747 22.3507C163.317 23.4275 164.583 23.295 166.738 22.6256" stroke="#239456" stroke-opacity="0.1" stroke-width="1.48276"/>
<path d="M163.282 27.4572C167.371 29.1701 169.385 28.9594 172.814 27.8945" stroke="#239456" stroke-opacity="0.1" stroke-width="1.48276"/>
<path d="M165.535 33.0997C170.123 35.0218 172.383 34.7854 176.231 33.5903" stroke="#239456" stroke-opacity="0.1" stroke-width="1.48276"/>
<path d="M170.817 20.0031C171.535 19.0743 171.62 18.5444 171.582 17.5938" stroke="#239456" stroke-opacity="0.1" stroke-width="1.48276"/>
<path d="M176.183 25.4231C177.385 23.8686 177.526 22.9818 177.464 21.391" stroke="#239456" stroke-opacity="0.1" stroke-width="1.48276"/>
<path d="M179.22 31.1193C180.801 29.0773 180.986 27.9123 180.903 25.8226" stroke="#239456" stroke-opacity="0.1" stroke-width="1.48276"/>
</svg>
