<svg width="1440" height="122" viewBox="0 0 1440 122" fill="none" xmlns="http://www.w3.org/2000/svg">
<path d="M1476.2 121H-11.049C-23.7111 90.3349 -39.5031 121.067 -11.049 47.258C17.405 -26.551 315.455 -0.975822 449.513 47.258C723.572 98.2209 792.475 -34.5546 989.767 47.258C1187.06 129.071 1456.41 -21.9356 1476.2 47.258C1496 116.452 1476.2 121 1476.2 121Z" fill="#3F4756"/>
<path d="M-11.049 121L-11.5112 121.191L-11.3835 121.5H-11.049V121ZM1476.2 121V121.5H1476.26L1476.31 121.487L1476.2 121ZM1476.2 47.258L1475.72 47.3955V47.3955L1476.2 47.258ZM989.767 47.258L989.575 47.7199L989.767 47.258ZM449.513 47.258L449.343 47.7285L449.381 47.7422L449.421 47.7496L449.513 47.258ZM-11.049 121.5H1476.2V120.5H-11.049V121.5ZM1476.2 121C1476.31 121.487 1476.32 121.487 1476.32 121.487C1476.32 121.487 1476.32 121.487 1476.32 121.486C1476.32 121.486 1476.32 121.485 1476.32 121.485C1476.33 121.484 1476.33 121.482 1476.34 121.48C1476.36 121.477 1476.37 121.472 1476.4 121.465C1476.44 121.451 1476.51 121.431 1476.59 121.403C1476.75 121.345 1476.97 121.254 1477.24 121.114C1477.79 120.833 1478.52 120.356 1479.33 119.566C1480.96 117.984 1482.85 115.167 1484.11 110.199C1486.62 100.284 1486.59 81.7449 1476.68 47.1205L1475.72 47.3955C1485.61 81.9647 1485.58 100.297 1483.14 109.954C1481.92 114.773 1480.11 117.417 1478.64 118.85C1477.9 119.568 1477.25 119.987 1476.78 120.225C1476.55 120.344 1476.37 120.418 1476.25 120.461C1476.19 120.483 1476.15 120.497 1476.12 120.505C1476.1 120.509 1476.1 120.511 1476.09 120.512C1476.09 120.513 1476.09 120.513 1476.09 120.513C1476.09 120.513 1476.09 120.513 1476.09 120.513C1476.09 120.513 1476.09 120.513 1476.09 120.513C1476.09 120.513 1476.09 120.513 1476.2 121ZM1476.68 47.1205C1474.15 38.2603 1467.61 32.9511 1457.84 30.2654C1448.11 27.5874 1435.11 27.4988 1419.54 29.0744C1388.39 32.2258 1346.65 42.0682 1299.45 51.4999C1204.97 70.3772 1088.45 87.6377 989.958 46.7962L989.575 47.7199C1088.38 88.691 1205.18 71.3547 1299.64 52.4805C1346.91 43.0364 1388.55 33.2143 1419.64 30.0693C1435.18 28.4968 1448.02 28.6021 1457.58 31.2296C1467.1 33.8494 1473.31 38.9573 1475.72 47.3955L1476.68 47.1205ZM989.958 46.7962C891.167 5.82956 824.493 18.598 748.321 35.2008C672.189 51.795 586.53 72.2287 449.604 46.7664L449.421 47.7496C586.554 73.2502 672.377 52.7776 748.534 36.1779C824.652 19.5868 891.075 6.87383 989.575 47.7199L989.958 46.7962ZM449.682 46.7875C382.591 22.6485 274.51 4.19036 179.647 0.992218C132.215 -0.606877 88.0564 1.60784 53.962 8.84785C36.9154 12.4677 22.3614 17.3486 11.1664 23.6527C-0.027765 29.9564 -7.9025 37.706 -11.5155 47.0782L-10.5825 47.4379C-7.08202 38.3578 0.581625 30.7609 11.657 24.5241C22.7315 18.2878 37.1782 13.4342 54.1698 9.82604C88.1517 2.60991 132.219 0.393844 179.614 1.99165C274.403 5.18731 382.376 23.6337 449.343 47.7285L449.682 46.7875ZM-11.5155 47.0782C-18.628 65.5277 -22.9839 77.4654 -25.3137 85.4663C-27.6342 93.435 -27.9869 97.6208 -26.9369 100.48C-26.4068 101.924 -25.5334 102.993 -24.4608 104.015C-23.9272 104.523 -23.3374 105.026 -22.7148 105.556C-22.0892 106.088 -21.4263 106.65 -20.7303 107.289C-17.964 109.827 -14.647 113.596 -11.5112 121.191L-10.5869 120.809C-13.7821 113.071 -17.1874 109.182 -20.0542 106.552C-20.7664 105.898 -21.4436 105.324 -22.067 104.794C-22.6933 104.261 -23.2613 103.777 -23.7711 103.291C-24.7854 102.325 -25.5413 101.38 -25.9982 100.136C-26.9223 97.619 -26.6792 93.732 -24.3536 85.7459C-22.0375 77.792 -17.697 65.8929 -10.5825 47.4379L-11.5155 47.0782Z" fill="#3F4756"/>
</svg>
