<svg width="1110" height="362" viewBox="0 0 1110 362" fill="none" xmlns="http://www.w3.org/2000/svg">
<path d="M0.29834 125.636V264.676V325.71C0.29834 334.719 11.1904 339.23 17.5606 332.86L127.204 223.217V207.038C127.204 207.038 109.002 207.038 109.002 188.836C109.002 170.634 127.204 170.634 127.204 170.634V125.636H82.7112C82.7112 125.636 82.7112 103.895 60.9704 103.895C39.2296 103.895 39.2296 125.636 39.2296 125.636H0.29834Z" fill="#0096FE"/>
<path d="M31.6457 112.997H0.29834V21.9885C0.29834 16.4038 4.82564 11.8765 10.4103 11.8765H127.204V47.2686C127.204 47.2686 109.002 47.2686 109.002 65.4702C109.002 83.6718 127.204 83.6718 127.204 83.6718V112.997H90.2951C90.2951 112.997 90.2951 91.2556 60.9704 91.2556C31.6457 91.2556 31.6457 112.997 31.6457 112.997Z" fill="#3BADFC"/>
<path d="M141.361 171.14V126.142H182.82C182.82 126.142 182.82 146.871 203.55 146.871C224.279 146.871 224.279 126.142 224.279 126.142H290.007V171.14C290.007 171.14 290.007 223.723 237.425 223.723H141.361V207.543C141.361 207.543 127.709 207.543 127.709 189.342C127.709 171.14 141.361 171.14 141.361 171.14Z" fill="#59D4FF"/>
<path d="M188.431 43.2107C176.149 62.992 188.431 110.348 188.431 110.348C188.431 110.348 243.549 110.185 260.303 86.7257C274.96 66.2029 282.608 4.66885 260.303 22.0749C237.997 39.4809 203.896 18.3028 188.431 43.2107Z" fill="#2DBD6E"/>
<path d="M198.484 95.8484C215.02 59.5067 229.619 48.5726 258.797 34.6258" stroke="#239456" stroke-opacity="0.1" stroke-width="1.42714"/>
<path d="M255.126 54.1288C247.587 57.2872 243.874 56.8988 237.551 54.935" stroke="#239456" stroke-opacity="0.1" stroke-width="1.42714"/>
<path d="M247.687 69.107C235.695 74.1313 229.787 73.5134 219.73 70.3895" stroke="#239456" stroke-opacity="0.1" stroke-width="1.42714"/>
<path d="M241.079 85.658C227.621 91.2962 220.991 90.6028 209.705 87.0972" stroke="#239456" stroke-opacity="0.1" stroke-width="1.42714"/>
<path d="M225.588 47.2421C223.48 44.5174 223.233 42.963 223.343 40.1747" stroke="#239456" stroke-opacity="0.1" stroke-width="1.42714"/>
<path d="M209.848 63.1412C206.32 58.5813 205.906 55.9801 206.09 51.3137" stroke="#239456" stroke-opacity="0.1" stroke-width="1.42714"/>
<path d="M200.937 79.8493C196.302 73.8594 195.759 70.4424 196 64.3127" stroke="#239456" stroke-opacity="0.1" stroke-width="1.42714"/>
<path d="M176.9 29.8067C180.93 36.2974 176.9 51.8361 176.9 51.8361C176.9 51.8361 158.814 51.7824 153.317 44.085C148.507 37.351 145.998 17.1601 153.317 22.8715C160.635 28.5828 171.825 21.6338 176.9 29.8067Z" fill="#2DBD6E"/>
<path d="M185.483 21.7806C183.96 24.5848 185.483 31.298 185.483 31.298C185.483 31.298 192.32 31.2748 194.398 27.9493C196.216 25.04 197.165 16.3169 194.398 18.7844C191.631 21.2519 187.401 18.2497 185.483 21.7806Z" fill="#2DBD6E"/>
<path d="M173.601 47.0782C168.175 35.1536 163.384 31.5658 153.81 26.9895" stroke="#239456" stroke-opacity="0.1" stroke-width="1.42714"/>
<path d="M155.015 33.3892C157.489 34.4255 158.708 34.298 160.782 33.6537" stroke="#239456" stroke-opacity="0.1" stroke-width="1.42714"/>
<path d="M157.456 38.3039C161.391 39.9525 163.329 39.7497 166.63 38.7247" stroke="#239456" stroke-opacity="0.1" stroke-width="1.42714"/>
<path d="M159.624 43.7348C164.04 45.5848 166.216 45.3573 169.919 44.207" stroke="#239456" stroke-opacity="0.1" stroke-width="1.42714"/>
<path d="M164.708 31.1293C165.399 30.2352 165.48 29.7252 165.444 28.8103" stroke="#239456" stroke-opacity="0.1" stroke-width="1.42714"/>
<path d="M169.872 36.3464C171.03 34.8502 171.166 33.9967 171.105 32.4655" stroke="#239456" stroke-opacity="0.1" stroke-width="1.42714"/>
<path d="M172.796 41.8289C174.317 39.8635 174.495 38.7422 174.416 36.7309" stroke="#239456" stroke-opacity="0.1" stroke-width="1.42714"/>
<path d="M457.501 8.82004V36.3732H400.116V59.3686H456.673V87.3361H400.116V147H368.627V8.82004H457.501ZM541.017 100.18C541.017 92.3081 539.152 86.0931 535.423 81.5354C531.833 76.8397 526.93 74.4918 520.715 74.4918C514.5 74.4918 509.597 76.7706 506.006 81.3283C502.415 85.7478 500.619 91.6866 500.619 99.1446C500.619 106.741 502.415 112.818 506.006 117.375C509.597 121.795 514.5 124.005 520.715 124.005C526.93 124.005 531.833 121.864 535.423 117.582C539.152 113.301 541.017 107.5 541.017 100.18ZM570.227 99.3517C570.227 106.534 568.984 113.163 566.498 119.24C564.012 125.317 560.56 130.565 556.14 134.984C551.72 139.404 546.472 142.857 540.395 145.343C534.319 147.829 527.758 149.072 520.715 149.072C513.671 149.072 507.111 147.829 501.034 145.343C494.957 142.857 489.709 139.404 485.289 134.984C481.008 130.427 477.624 125.109 475.138 119.033C472.652 112.956 471.409 106.326 471.409 99.1446C471.409 91.9628 472.652 85.3335 475.138 79.2566C477.624 73.1797 481.008 67.9315 485.289 63.512C489.709 59.0924 494.888 55.6396 500.827 53.1536C506.903 50.6677 513.533 49.4247 520.715 49.4247C527.758 49.4247 534.249 50.7367 540.188 53.3608C546.265 55.8468 551.513 59.2996 555.933 63.7191C560.491 68.1387 564.012 73.3869 566.498 79.4638C568.984 85.5407 570.227 92.17 570.227 99.3517ZM653.772 80.2924C650.043 78.3589 646.797 76.9778 644.035 76.1491C641.273 75.3204 638.373 74.9061 635.334 74.9061C628.152 74.9061 622.352 77.1849 617.932 81.7426C613.513 86.1621 611.303 91.8938 611.303 98.9374C611.303 105.981 613.444 111.713 617.725 116.132C622.007 120.552 627.669 122.762 634.713 122.762C637.889 122.762 640.928 122.416 643.828 121.726C646.728 120.897 650.043 119.585 653.772 117.79V145.55C645.9 148.174 638.373 149.486 631.191 149.486C624.147 149.486 617.587 148.243 611.51 145.757C605.433 143.133 600.116 139.611 595.558 135.192C591.139 130.634 587.617 125.317 584.993 119.24C582.507 113.025 581.264 106.395 581.264 99.3517C581.264 92.17 582.507 85.5407 584.993 79.4638C587.617 73.2488 591.139 67.9315 595.558 63.512C600.116 59.0924 605.502 55.6396 611.717 53.1536C617.932 50.5295 624.7 49.2175 632.02 49.2175C635.887 49.2175 639.478 49.4937 642.792 50.0461C646.107 50.5986 649.767 51.6344 653.772 53.1536V80.2924ZM757.383 147H731.28V138.713C727.275 142.304 723.2 144.928 719.057 146.586C715.052 148.105 710.494 148.864 705.384 148.864C694.473 148.864 686.187 145.688 680.524 139.335C675 132.844 672.237 123.521 672.237 111.367V51.2892H699.583V102.252C699.583 109.572 700.688 114.82 702.898 117.997C705.108 121.035 708.699 122.554 713.671 122.554C716.571 122.554 719.264 122.071 721.75 121.104C724.236 120.137 726.998 118.342 730.037 115.718V51.2892H757.383V147ZM841.361 78.4279C836.942 76.0801 832.936 74.4227 829.345 73.4559C825.755 72.3511 822.302 71.7986 818.987 71.7986C815.811 71.7986 813.187 72.3511 811.115 73.4559C809.181 74.5608 808.215 76.011 808.215 77.8064C808.215 79.3257 809.043 80.6377 810.701 81.7426C812.358 82.7094 815.811 84.0214 821.059 85.6788C826.307 87.198 830.727 88.9244 834.317 90.8579C838.046 92.7915 841.085 95.0012 843.433 97.4872C845.781 99.8351 847.438 102.597 848.405 105.774C849.51 108.812 850.062 112.265 850.062 116.132C850.062 121.104 849.095 125.662 847.162 129.805C845.228 133.81 842.466 137.263 838.875 140.164C835.422 142.926 831.141 145.136 826.031 146.793C821.059 148.312 815.534 149.072 809.458 149.072C804.209 149.072 799.099 148.588 794.127 147.621C789.293 146.655 783.769 145.066 777.554 142.857L775.482 142.028V115.304C780.454 118.066 785.771 120.276 791.434 121.933C797.097 123.59 802.276 124.419 806.972 124.419C811.253 124.419 814.637 123.59 817.123 121.933C819.747 120.137 821.059 117.72 821.059 114.682C821.059 112.058 820.023 110.055 817.951 108.674C815.88 107.155 811.805 105.498 805.729 103.702C795.785 100.94 788.741 97.6254 784.598 93.7583C780.454 89.753 778.383 84.3667 778.383 77.5993C778.383 68.8983 781.628 62.0618 788.119 57.0898C794.749 51.9797 803.657 49.4247 814.844 49.4247C819.263 49.4247 823.683 49.908 828.102 50.8748C832.522 51.7035 836.942 52.9465 841.361 54.6038V78.4279Z" fill="#0096FE"/>
<path d="M400.116 281.033H455.43V309H368.627V170.82H400.116V281.033ZM524.801 244.571C523.696 234.904 518.793 230.07 510.092 230.07C505.949 230.07 502.427 231.382 499.527 234.006C496.765 236.63 495.176 240.083 494.762 244.364L524.801 244.571ZM494.762 262.802C495.453 269.707 498.215 275.232 503.049 279.375C508.021 283.38 514.443 285.383 522.315 285.383C528.116 285.383 533.364 284.554 538.06 282.897C542.756 281.24 547.728 278.477 552.976 274.61L553.183 302.578C547.106 305.478 541.236 307.619 535.574 309C529.911 310.381 523.973 311.072 517.758 311.072C510.023 311.072 502.911 309.829 496.419 307.343C489.928 304.857 484.335 301.404 479.639 296.984C475.081 292.427 471.49 287.04 468.866 280.825C466.38 274.472 465.137 267.498 465.137 259.902C465.137 252.72 466.242 246.16 468.452 240.221C470.662 234.144 473.769 228.965 477.775 224.683C481.78 220.264 486.545 216.88 492.069 214.532C497.593 212.046 503.67 210.803 510.3 210.803C537.784 210.803 552.216 228.067 553.597 262.595L494.762 262.802ZM620.609 266.117C618.123 265.288 616.121 264.735 614.601 264.459C613.082 264.183 611.356 264.045 609.422 264.045C604.588 264.045 600.721 265.15 597.821 267.36C595.059 269.569 593.678 272.47 593.678 276.061C593.678 279.375 594.852 282.068 597.199 284.14C599.547 286.212 602.724 287.248 606.729 287.248C608.939 287.248 611.08 286.902 613.151 286.212C615.223 285.521 617.64 284.347 620.402 282.69L620.609 266.117ZM574.825 215.982C585.598 213.082 596.095 211.632 606.315 211.632C613.773 211.632 620.126 212.253 625.374 213.496C630.622 214.739 634.835 216.742 638.011 219.504C641.326 222.128 643.743 225.65 645.262 230.07C646.781 234.351 647.541 239.53 647.541 245.607L647.334 285.59C647.334 288.905 647.403 291.736 647.541 294.084C647.679 296.294 647.955 298.296 648.37 300.092C648.784 301.749 649.336 303.337 650.027 304.857C650.717 306.238 651.615 307.619 652.72 309H624.131C623.44 307.481 622.957 306.238 622.681 305.271C622.405 304.304 622.128 303.061 621.852 301.542C614.118 307.205 606.108 310.036 597.821 310.036C592.987 310.036 588.498 309.276 584.355 307.757C580.35 306.1 576.897 303.89 573.997 301.128C571.096 298.365 568.818 295.051 567.16 291.184C565.503 287.317 564.674 283.104 564.674 278.547C564.674 273.575 565.572 269.086 567.367 265.081C569.301 260.937 571.994 257.416 575.447 254.515C578.9 251.477 583.043 249.198 587.877 247.679C592.711 246.021 598.028 245.193 603.829 245.193C609.353 245.193 614.947 245.952 620.609 247.472V245.607C620.609 237.182 614.049 232.97 600.928 232.97C596.371 232.97 591.951 233.591 587.67 234.834C583.526 236.077 579.245 237.942 574.825 240.428V215.982ZM697.555 213.289V223.026C701.422 219.021 705.013 216.259 708.328 214.739C711.643 213.082 715.51 212.253 719.929 212.253C722.277 212.253 724.28 212.46 725.937 212.875C727.594 213.151 729.804 213.842 732.566 214.946V244.364C729.39 242.569 726.697 241.326 724.487 240.635C722.277 239.945 719.998 239.599 717.65 239.599C710.745 239.599 704.599 242.638 699.213 248.715V309H671.452V213.289H697.555ZM775.243 213.496V221.783C782.839 215.016 791.471 211.632 801.139 211.632C823.512 211.632 834.699 224.545 834.699 250.372V309H807.354V258.451C807.354 250.855 806.18 245.538 803.832 242.5C801.622 239.323 797.893 237.735 792.645 237.735C787.12 237.735 781.803 240.083 776.693 244.778V309H749.347V213.496H775.243ZM888.22 188.222C888.22 192.78 886.631 196.647 883.455 199.823C880.278 202.862 876.48 204.381 872.061 204.381C867.503 204.381 863.636 202.793 860.459 199.616C857.283 196.44 855.694 192.573 855.694 188.015C855.694 185.805 856.109 183.733 856.937 181.8C857.766 179.866 858.871 178.209 860.252 176.828C861.771 175.309 863.498 174.135 865.431 173.306C867.503 172.339 869.644 171.856 871.853 171.856C876.411 171.856 880.278 173.513 883.455 176.828C886.631 180.004 888.22 183.802 888.22 188.222ZM885.734 309H858.388V213.289H885.734V309ZM936.484 213.496V221.783C944.081 215.016 952.713 211.632 962.38 211.632C984.754 211.632 995.941 224.545 995.941 250.372V309H968.595V258.451C968.595 250.855 967.421 245.538 965.073 242.5C962.864 239.323 959.135 237.735 953.886 237.735C948.362 237.735 943.045 240.083 937.935 244.778V309H910.589V213.496H936.484ZM1057.96 304.235C1051.74 304.235 1046.84 305.409 1043.25 307.757C1039.79 310.105 1038.07 313.281 1038.07 317.287C1038.07 321.43 1039.86 324.676 1043.45 327.023C1047.04 329.371 1052.02 330.545 1058.37 330.545C1064.17 330.545 1068.87 329.302 1072.46 326.816C1076.05 324.468 1077.84 321.292 1077.84 317.287C1077.84 313.281 1076.05 310.105 1072.46 307.757C1068.87 305.409 1064.03 304.235 1057.96 304.235ZM1070.18 243.328C1070.18 239.875 1068.93 237.044 1066.45 234.834C1063.96 232.487 1060.86 231.313 1057.13 231.313C1053.4 231.313 1050.29 232.418 1047.8 234.627C1045.46 236.837 1044.28 239.668 1044.28 243.121C1044.28 246.712 1045.46 249.681 1047.8 252.029C1050.29 254.239 1053.33 255.344 1056.92 255.344C1060.79 255.344 1063.96 254.239 1066.45 252.029C1068.93 249.819 1070.18 246.919 1070.18 243.328ZM1105.4 223.855C1103.46 221.921 1101.6 220.54 1099.8 219.711C1098.15 218.883 1096.35 218.468 1094.42 218.468C1091.24 218.468 1088.34 219.78 1085.72 222.404C1093.45 228.067 1097.32 235.525 1097.32 244.778C1097.32 253.618 1094.21 260.592 1087.99 265.702C1081.92 270.674 1073.08 273.505 1061.48 274.196C1058.16 274.472 1055.81 274.956 1054.43 275.646C1053.05 276.199 1052.36 277.304 1052.36 278.961C1052.36 280.618 1053.19 281.792 1054.85 282.483C1056.5 283.173 1059.34 283.657 1063.34 283.933C1078.26 284.762 1089.24 287.8 1096.28 293.048C1103.32 298.158 1106.85 305.823 1106.85 316.044C1106.85 321.568 1105.67 326.54 1103.32 330.96C1101.11 335.517 1097.87 339.315 1093.59 342.354C1089.31 345.53 1084.2 347.947 1078.26 349.605C1072.32 351.4 1065.62 352.298 1058.16 352.298C1050.84 352.298 1044.14 351.469 1038.07 349.812C1032.13 348.293 1027.02 346.083 1022.74 343.182C1018.46 340.282 1015.14 336.76 1012.79 332.617C1010.45 328.474 1009.27 323.916 1009.27 318.944C1009.27 311.486 1011.62 305.409 1016.31 300.713C1021.15 295.879 1028.05 292.703 1037.03 291.184C1032.2 290.355 1028.74 289.112 1026.67 287.455C1024.6 285.797 1023.57 283.519 1023.57 280.618C1023.57 274.956 1027.78 271.434 1036.2 270.053C1029.99 267.705 1025.15 264.252 1021.7 259.694C1018.39 255.137 1016.73 249.75 1016.73 243.535C1016.73 238.84 1017.7 234.558 1019.63 230.691C1021.56 226.686 1024.26 223.302 1027.71 220.54C1031.3 217.64 1035.44 215.43 1040.14 213.911C1044.97 212.253 1050.29 211.425 1056.09 211.425C1060.51 211.425 1064.58 211.908 1068.31 212.875L1069.56 211.01C1073.29 205.21 1077.08 201.066 1080.95 198.58C1084.96 196.094 1089.58 194.851 1094.83 194.851C1096.76 194.851 1098.42 194.989 1099.8 195.266C1101.18 195.542 1103.05 196.025 1105.4 196.716V223.855Z" fill="#3BADFC"/>
<path d="M379.514 336.653C378.607 336.222 377.701 335.898 376.795 335.682C375.91 335.466 375.09 335.358 374.335 335.358C373.493 335.358 372.813 335.499 372.295 335.779C371.799 336.06 371.551 336.437 371.551 336.912C371.551 337.106 371.594 337.29 371.68 337.463C371.767 337.614 371.918 337.765 372.134 337.916C372.349 338.045 372.641 338.185 373.008 338.337C373.396 338.488 373.881 338.66 374.464 338.854L376.406 339.502C378.111 340.063 379.395 340.883 380.258 341.962C381.122 343.041 381.553 344.357 381.553 345.911C381.553 347.033 381.337 348.058 380.906 348.986C380.474 349.893 379.859 350.669 379.061 351.317C378.284 351.964 377.345 352.471 376.244 352.838C375.144 353.183 373.914 353.356 372.554 353.356C370.353 353.356 368.109 352.914 365.821 352.029V346.947L366.145 347.076C367.354 347.659 368.433 348.08 369.382 348.339C370.353 348.576 371.357 348.695 372.392 348.695C373.558 348.695 374.497 348.447 375.209 347.95C375.921 347.454 376.277 346.796 376.277 345.976C376.277 345.652 376.223 345.382 376.115 345.167C376.029 344.929 375.867 344.713 375.629 344.519C375.392 344.325 375.068 344.141 374.658 343.969C374.248 343.775 373.73 343.57 373.105 343.354C371.724 342.901 370.591 342.469 369.706 342.059C368.821 341.649 368.12 341.217 367.602 340.764C367.084 340.289 366.728 339.772 366.534 339.21C366.339 338.628 366.242 337.948 366.242 337.171C366.242 336.243 366.426 335.402 366.793 334.646C367.181 333.891 367.71 333.244 368.379 332.704C369.069 332.165 369.9 331.755 370.871 331.474C371.842 331.172 372.921 331.021 374.108 331.021C375.014 331.021 375.953 331.107 376.924 331.28C377.917 331.453 378.78 331.69 379.514 331.992V336.653ZM429.328 353H425.249V351.705C424.623 352.266 423.987 352.676 423.339 352.935C422.713 353.173 422.001 353.291 421.203 353.291C419.498 353.291 418.203 352.795 417.318 351.802C416.455 350.788 416.024 349.331 416.024 347.432V338.045H420.296V346.008C420.296 347.152 420.469 347.972 420.814 348.468C421.16 348.943 421.721 349.18 422.498 349.18C422.951 349.18 423.372 349.105 423.76 348.954C424.148 348.803 424.58 348.522 425.055 348.112V338.045H429.328V353ZM469.251 348.565C469.726 348.738 470.136 348.867 470.481 348.954C470.827 349.04 471.183 349.083 471.55 349.083C472.564 349.083 473.395 348.738 474.042 348.047C474.711 347.335 475.046 346.451 475.046 345.393C475.046 344.357 474.743 343.494 474.139 342.804C473.535 342.113 472.758 341.768 471.809 341.768C471.334 341.768 470.913 341.843 470.546 341.994C470.179 342.145 469.748 342.404 469.251 342.771V348.565ZM469.025 338.045V339.243C469.629 338.747 470.244 338.39 470.87 338.175C471.496 337.937 472.186 337.819 472.942 337.819C473.913 337.819 474.808 338.013 475.628 338.401C476.47 338.768 477.182 339.297 477.765 339.987C478.369 340.656 478.844 341.455 479.189 342.383C479.534 343.289 479.707 344.282 479.707 345.361C479.707 346.504 479.523 347.562 479.156 348.533C478.79 349.482 478.272 350.303 477.603 350.993C476.934 351.684 476.146 352.234 475.24 352.644C474.333 353.032 473.341 353.227 472.262 353.227C471.744 353.227 471.247 353.183 470.773 353.097C470.32 353.011 469.812 352.881 469.251 352.709V359.409H464.946V338.045H469.025ZM518.549 348.565C519.024 348.738 519.434 348.867 519.78 348.954C520.125 349.04 520.481 349.083 520.848 349.083C521.862 349.083 522.693 348.738 523.34 348.047C524.009 347.335 524.344 346.451 524.344 345.393C524.344 344.357 524.042 343.494 523.437 342.804C522.833 342.113 522.056 341.768 521.107 341.768C520.632 341.768 520.211 341.843 519.844 341.994C519.477 342.145 519.046 342.404 518.549 342.771V348.565ZM518.323 338.045V339.243C518.927 338.747 519.542 338.39 520.168 338.175C520.794 337.937 521.484 337.819 522.24 337.819C523.211 337.819 524.106 338.013 524.926 338.401C525.768 338.768 526.48 339.297 527.063 339.987C527.667 340.656 528.142 341.455 528.487 342.383C528.832 343.289 529.005 344.282 529.005 345.361C529.005 346.504 528.821 347.562 528.455 348.533C528.088 349.482 527.57 350.303 526.901 350.993C526.232 351.684 525.444 352.234 524.538 352.644C523.632 353.032 522.639 353.227 521.56 353.227C521.042 353.227 520.546 353.183 520.071 353.097C519.618 353.011 519.111 352.881 518.549 352.709V359.409H514.244V338.045H518.323ZM573.35 345.684C573.35 344.454 573.059 343.483 572.476 342.771C571.915 342.037 571.149 341.671 570.178 341.671C569.207 341.671 568.441 342.027 567.88 342.739C567.319 343.429 567.038 344.357 567.038 345.523C567.038 346.709 567.319 347.659 567.88 348.371C568.441 349.062 569.207 349.407 570.178 349.407C571.149 349.407 571.915 349.072 572.476 348.403C573.059 347.735 573.35 346.828 573.35 345.684ZM577.915 345.555C577.915 346.677 577.72 347.713 577.332 348.662C576.943 349.612 576.404 350.432 575.713 351.123C575.023 351.813 574.203 352.353 573.253 352.741C572.304 353.129 571.279 353.324 570.178 353.324C569.078 353.324 568.053 353.129 567.103 352.741C566.154 352.353 565.333 351.813 564.643 351.123C563.974 350.41 563.445 349.58 563.057 348.63C562.668 347.681 562.474 346.645 562.474 345.523C562.474 344.4 562.668 343.365 563.057 342.415C563.445 341.466 563.974 340.646 564.643 339.955C565.333 339.264 566.143 338.725 567.071 338.337C568.02 337.948 569.056 337.754 570.178 337.754C571.279 337.754 572.293 337.959 573.221 338.369C574.17 338.757 574.99 339.297 575.681 339.987C576.393 340.678 576.943 341.498 577.332 342.447C577.72 343.397 577.915 344.433 577.915 345.555ZM616.508 338.045V339.567C617.112 338.941 617.673 338.509 618.191 338.272C618.709 338.013 619.313 337.883 620.004 337.883C620.371 337.883 620.684 337.916 620.943 337.98C621.202 338.024 621.547 338.131 621.979 338.304V342.901C621.482 342.62 621.061 342.426 620.716 342.318C620.371 342.21 620.015 342.156 619.648 342.156C618.569 342.156 617.609 342.631 616.767 343.58V353H612.43V338.045H616.508ZM661.373 338.045H664.998V341.897H661.373V346.235C661.373 347.357 661.513 348.134 661.793 348.565C662.096 348.997 662.635 349.213 663.412 349.213C663.692 349.213 663.941 349.18 664.156 349.116C664.372 349.051 664.653 348.932 664.998 348.76V352.741C664.48 352.914 664.005 353.032 663.574 353.097C663.164 353.183 662.711 353.227 662.214 353.227C658.761 353.227 657.035 351.36 657.035 347.627V341.897H654.769V338.045H657.035V334.096L661.373 332.38V338.045ZM754.069 336.524C753.228 336.114 752.505 335.833 751.9 335.682C751.296 335.51 750.638 335.423 749.926 335.423C748.912 335.423 747.984 335.596 747.142 335.941C746.322 336.265 745.61 336.729 745.006 337.333C744.401 337.916 743.937 338.628 743.614 339.469C743.29 340.311 743.128 341.228 743.128 342.221C743.128 343.214 743.29 344.131 743.614 344.972C743.937 345.814 744.391 346.537 744.973 347.141C745.556 347.745 746.246 348.22 747.045 348.565C747.865 348.911 748.761 349.083 749.732 349.083C750.508 349.083 751.242 348.997 751.933 348.824C752.623 348.63 753.335 348.339 754.069 347.95V352.644C753.292 352.924 752.537 353.129 751.803 353.259C751.091 353.388 750.325 353.453 749.505 353.453C747.843 353.453 746.311 353.173 744.909 352.612C743.527 352.05 742.33 351.274 741.315 350.281C740.301 349.267 739.503 348.069 738.92 346.688C738.359 345.285 738.079 343.764 738.079 342.124C738.079 340.548 738.359 339.092 738.92 337.754C739.503 336.394 740.29 335.218 741.283 334.226C742.297 333.233 743.495 332.456 744.876 331.895C746.257 331.334 747.746 331.053 749.343 331.053C750.055 331.053 750.757 331.107 751.447 331.215C752.159 331.323 753.033 331.496 754.069 331.733V336.524ZM797.171 342.933C796.998 341.422 796.232 340.667 794.873 340.667C794.225 340.667 793.675 340.872 793.222 341.282C792.79 341.692 792.542 342.232 792.477 342.901L797.171 342.933ZM792.477 345.782C792.585 346.861 793.017 347.724 793.772 348.371C794.549 348.997 795.552 349.31 796.783 349.31C797.689 349.31 798.509 349.18 799.243 348.921C799.976 348.662 800.753 348.231 801.573 347.627L801.606 351.997C800.656 352.45 799.739 352.784 798.854 353C797.969 353.216 797.042 353.324 796.07 353.324C794.862 353.324 793.751 353.129 792.736 352.741C791.722 352.353 790.848 351.813 790.114 351.123C789.402 350.41 788.841 349.569 788.431 348.598C788.043 347.605 787.849 346.515 787.849 345.328C787.849 344.206 788.021 343.181 788.366 342.253C788.712 341.304 789.197 340.494 789.823 339.826C790.449 339.135 791.193 338.606 792.057 338.239C792.92 337.851 793.869 337.657 794.905 337.657C799.199 337.657 801.455 340.354 801.67 345.749L792.477 345.782ZM840.27 338.078V339.372C841.457 338.315 842.806 337.786 844.317 337.786C847.812 337.786 849.56 339.804 849.56 343.839V353H845.288V345.102C845.288 343.915 845.104 343.084 844.737 342.609C844.392 342.113 843.809 341.865 842.989 341.865C842.126 341.865 841.295 342.232 840.497 342.965V353H836.224V338.078H840.27ZM889.655 338.045H893.281V341.897H889.655V346.235C889.655 347.357 889.795 348.134 890.076 348.565C890.378 348.997 890.918 349.213 891.694 349.213C891.975 349.213 892.223 349.18 892.439 349.116C892.655 349.051 892.935 348.932 893.281 348.76V352.741C892.763 352.914 892.288 353.032 891.856 353.097C891.446 353.183 890.993 353.227 890.497 353.227C887.044 353.227 885.318 351.36 885.318 347.627V341.897H883.052V338.045H885.318V334.096L889.655 332.38V338.045ZM936.088 342.933C935.915 341.422 935.149 340.667 933.79 340.667C933.142 340.667 932.592 340.872 932.139 341.282C931.707 341.692 931.459 342.232 931.394 342.901L936.088 342.933ZM931.394 345.782C931.502 346.861 931.934 347.724 932.689 348.371C933.466 348.997 934.469 349.31 935.699 349.31C936.606 349.31 937.426 349.18 938.159 348.921C938.893 348.662 939.67 348.231 940.49 347.627L940.522 351.997C939.573 352.45 938.656 352.784 937.771 353C936.886 353.216 935.958 353.324 934.987 353.324C933.779 353.324 932.667 353.129 931.653 352.741C930.639 352.353 929.765 351.813 929.031 351.123C928.319 350.41 927.758 349.569 927.348 348.598C926.959 347.605 926.765 346.515 926.765 345.328C926.765 344.206 926.938 343.181 927.283 342.253C927.628 341.304 928.114 340.494 928.74 339.826C929.366 339.135 930.11 338.606 930.973 338.239C931.837 337.851 932.786 337.657 933.822 337.657C938.116 337.657 940.371 340.354 940.587 345.749L931.394 345.782ZM979.187 338.045V339.567C979.791 338.941 980.352 338.509 980.87 338.272C981.388 338.013 981.992 337.883 982.683 337.883C983.05 337.883 983.363 337.916 983.622 337.98C983.881 338.024 984.226 338.131 984.658 338.304V342.901C984.161 342.62 983.74 342.426 983.395 342.318C983.05 342.21 982.694 342.156 982.327 342.156C981.248 342.156 980.288 342.631 979.446 343.58V353H975.108V338.045H979.187Z" fill="#9DEBFF"/>
</svg>
