<svg width="81" height="80" viewBox="0 0 81 80" fill="none" xmlns="http://www.w3.org/2000/svg">
<path d="M8.58337 31.6666L40.25 13.3333L71.9167 31.6666" stroke="#18A8C2" stroke-width="1.5" stroke-linecap="round" stroke-linejoin="round"/>
<g clip-path="url(#clip0_10_86)">
<path d="M49.947 52.6984C53.9712 52.6984 57.1955 49.2421 57.1955 44.9603C57.1955 40.6786 53.9712 37.2222 49.947 37.2222C45.9228 37.2222 42.6743 40.6786 42.6743 44.9603C42.6743 49.2421 45.9228 52.6984 49.947 52.6984ZM30.5531 52.6984C34.5773 52.6984 37.8016 49.2421 37.8016 44.9603C37.8016 40.6786 34.5773 37.2222 30.5531 37.2222C26.5288 37.2222 23.2803 40.6786 23.2803 44.9603C23.2803 49.2421 26.5288 52.6984 30.5531 52.6984ZM30.5531 57.8571C24.9046 57.8571 13.5834 60.875 13.5834 66.8849V73.3333H47.5228V66.8849C47.5228 60.875 36.2016 57.8571 30.5531 57.8571ZM49.947 57.8571C49.244 57.8571 48.444 57.9087 47.5955 57.9861C50.4076 60.1528 52.3713 63.0675 52.3713 66.8849V73.3333H66.9167V66.8849C66.9167 60.875 55.5955 57.8571 49.947 57.8571Z" fill="#18A8C2"/>
</g>
<defs>
<clipPath id="clip0_10_86">
<rect width="53.3333" height="43.3333" fill="white" transform="translate(13.5834 30)"/>
</clipPath>
</defs>
</svg>
