<svg width="66" height="65" viewBox="0 0 66 65" fill="none" xmlns="http://www.w3.org/2000/svg">
<mask id="mask0_11_116" style="mask-type:luminance" maskUnits="userSpaceOnUse" x="3" y="3" width="60" height="59">
<path d="M26.5279 59.5834C25.2009 55.2563 23.1989 52.0303 20.5222 49.9051C16.5071 46.7188 10.1276 48.6999 7.77138 45.412C5.41513 42.1241 9.42211 36.0791 10.8277 32.5122C12.2334 28.9453 5.43815 27.6846 6.23169 26.6717C6.75982 25.9964 10.1944 24.0482 16.5355 20.8271C18.3366 10.5535 24.9905 5.41669 36.4973 5.41669C53.7575 5.41669 60.3334 20.0498 60.3334 29.3584C60.3334 38.6642 52.3709 48.6904 41.0284 50.853C40.0145 52.33 41.477 55.2401 45.4159 59.5834" stroke="white" stroke-width="4.667" stroke-linecap="round" stroke-linejoin="round"/>
<path fill-rule="evenodd" clip-rule="evenodd" d="M27.1563 19.6354C26.2707 23.0669 26.5339 25.4768 27.9458 26.8653C29.3569 28.2529 31.7619 29.1602 35.1608 29.5872C34.389 34.0135 35.3292 36.0899 37.9816 35.8163C40.633 35.5437 42.2264 34.4423 42.7618 32.5122C46.9055 33.6768 49.1516 32.7018 49.5001 29.5872C50.0215 24.9153 47.5027 21.19 46.4695 21.19C45.4362 21.19 42.7618 21.0641 42.7618 19.6354C42.7618 18.2068 39.6363 17.401 36.8156 17.401C33.9949 17.401 35.6917 15.4984 31.8187 16.25C29.2368 16.751 27.6827 17.8795 27.1563 19.6354Z" fill="#555555" stroke="white" stroke-width="4" stroke-linejoin="round"/>
<path d="M42.0521 34.5312C40.6749 35.3857 38.7858 36.8062 37.9896 37.9167C36.0003 40.6927 34.3875 42.3827 34.0354 44.1567" stroke="white" stroke-width="4" stroke-linecap="round"/>
</mask>
<g mask="url(#mask0_11_116)">
<path d="M0.75 0H65.75V65H0.75V0Z" fill="#18A8C2"/>
</g>
</svg>
