<svg width="60" height="67" viewBox="0 0 60 67" fill="none" xmlns="http://www.w3.org/2000/svg">
<path d="M54.6367 8.00859C54.6367 13.5047 45.5906 17.9534 45.2053 18.1371C45.1038 18.1863 44.9903 18.2121 44.875 18.2121C44.7597 18.2121 44.6462 18.1863 44.5447 18.1371C44.1594 17.9534 35.1133 13.5047 35.1133 8.00859C35.1149 6.71798 35.6847 5.48063 36.6978 4.56803C37.7109 3.65542 39.0844 3.14208 40.5171 3.14062C42.3169 3.14062 43.8927 3.83784 44.875 5.01636C45.8573 3.83784 47.4331 3.14062 49.2329 3.14062C50.6656 3.14208 52.0391 3.65542 53.0522 4.56803C54.0653 5.48063 54.6351 6.71798 54.6367 8.00859Z" fill="#18A8C2"/>
<path d="M48.5938 35.175C50.5655 35.1728 52.4559 34.4662 53.8501 33.2102C55.2444 31.9542 56.0288 30.2513 56.0312 28.475V23.45H50.4531C48.5494 23.4527 46.7201 24.1162 45.3454 25.3026C44.3828 23.7277 42.9688 22.4142 41.2508 21.4991C39.5329 20.5841 37.5739 20.1009 35.5781 20.1H30V25.125C30.0034 27.7895 31.1799 30.344 33.2714 32.228C35.3629 34.1121 38.1985 35.1719 41.1562 35.175H43.0156V56.95H20.7031V48.575H22.5625C24.5343 48.5728 26.4246 47.8662 27.8189 46.6102C29.2132 45.3542 29.9975 43.6513 30 41.875V36.85H24.4219C22.5182 36.8527 20.6889 37.5162 19.3142 38.7026C18.3515 37.1277 16.9375 35.8142 15.2196 34.8991C13.5016 33.9841 11.5427 33.5009 9.54688 33.5H3.96875V38.525C3.97219 41.1895 5.14869 43.744 7.24014 45.628C9.3316 47.5121 12.1672 48.5719 15.125 48.575H16.9844V56.95H3.96875V60.3H56.0312V56.95H46.7344V35.175H48.5938ZM46.7344 30.15C46.7344 29.2616 47.1262 28.4095 47.8236 27.7812C48.521 27.153 49.4669 26.8 50.4531 26.8H52.3125V28.475C52.3125 29.3635 51.9207 30.2156 51.2233 30.8438C50.5259 31.4721 49.58 31.825 48.5938 31.825H46.7344V30.15ZM20.7031 43.55C20.7031 42.6616 21.0949 41.8095 21.7923 41.1812C22.4897 40.553 23.4356 40.2 24.4219 40.2H26.2812V41.875C26.2812 42.7635 25.8895 43.6156 25.1921 44.2438C24.4947 44.8721 23.5488 45.225 22.5625 45.225H20.7031V43.55ZM16.9844 45.225H15.125C13.1532 45.2228 11.2629 44.5162 9.86861 43.2602C8.47434 42.0042 7.68996 40.3013 7.6875 38.525V36.85H9.54688C11.5187 36.8523 13.409 37.5589 14.8033 38.8149C16.1975 40.0709 16.9819 41.7738 16.9844 43.55V45.225ZM43.0156 31.825H41.1562C39.1845 31.8228 37.2941 31.1162 35.8999 29.8602C34.5056 28.6042 33.7212 26.9013 33.7188 25.125V23.45H35.5781C37.5499 23.4523 39.4402 24.1589 40.8345 25.4149C42.2288 26.6709 43.0132 28.3738 43.0156 30.15V31.825Z" fill="#18A8C2"/>
</svg>
