<svg width="32" height="31" viewBox="0 0 32 31" fill="none" xmlns="http://www.w3.org/2000/svg">
<g clip-path="url(#clip0_43_594)">
<path d="M30.0508 27.653L28.0003 21.5H25.7503L26.9998 27.5H5.0008L6.2503 21.5H4.0003L1.9483 27.653C1.4278 29.219 2.3503 30.5 4.0003 30.5H28.0003C29.6503 30.5 30.5728 29.219 30.0508 27.653ZM23.5003 8C23.5003 6.01088 22.7101 4.10322 21.3036 2.6967C19.8971 1.29018 17.9894 0.5 16.0003 0.5C14.0112 0.5 12.1035 1.29018 10.697 2.6967C9.29047 4.10322 8.5003 6.01088 8.5003 8C8.5003 15.1625 16.0003 23 16.0003 23C16.0003 23 23.5003 15.1625 23.5003 8ZM11.9503 8.09C11.9507 7.01613 12.3776 5.98638 13.137 5.22719C13.8965 4.46799 14.9264 4.0415 16.0003 4.0415C17.0742 4.0415 18.1042 4.46812 18.8635 5.2275C19.6229 5.98688 20.0495 7.01682 20.0495 8.09075C20.0495 9.16468 19.6229 10.1946 18.8635 10.954C18.1042 11.7134 17.0742 12.14 16.0003 12.14C14.9262 12.14 13.896 11.7133 13.1365 10.9538C12.377 10.1943 11.9503 9.16413 11.9503 8.09Z" fill="#18A8C2"/>
</g>
<defs>
<clipPath id="clip0_43_594">
<rect width="30.3938" height="30" fill="white" transform="translate(0.802979 0.5)"/>
</clipPath>
</defs>
</svg>
