<svg width="32" height="32" viewBox="0 0 32 32" fill="none" xmlns="http://www.w3.org/2000/svg">
<path d="M18 29H14C13.7348 29 13.4805 29.1054 13.2929 29.2929C13.1054 29.4805 13 29.7348 13 30C13 30.2652 13.1054 30.5196 13.2929 30.7071C13.4805 30.8947 13.7348 31 14 31H18C18.2652 31 18.5196 30.8947 18.7071 30.7071C18.8947 30.5196 19 30.2652 19 30C19 29.7348 18.8947 29.4805 18.7071 29.2929C18.5196 29.1054 18.2652 29 18 29ZM19 26H13C12.7348 26 12.4805 26.1054 12.2929 26.2929C12.1054 26.4805 12 26.7348 12 27C12 27.2652 12.1054 27.5196 12.2929 27.7071C12.4805 27.8947 12.7348 28 13 28H19C19.2652 28 19.5196 27.8947 19.7071 27.7071C19.8947 27.5196 20 27.2652 20 27C20 26.7348 19.8947 26.4805 19.7071 26.2929C19.5196 26.1054 19.2652 26 19 26ZM23.0888 3.91815C21.2094 2.03628 18.6919 1.00003 16 1.00003C14.6859 0.996896 13.3842 1.25342 12.1695 1.75485C10.9548 2.25629 9.85119 2.99277 8.92198 3.92198C7.99277 4.85119 7.25629 5.95482 6.75485 7.16949C6.25342 8.38416 5.9969 9.68593 6.00003 11C6.00003 13.9138 7.1169 16.6394 9.06253 18.4775L9.33503 18.7332C10.4607 19.7857 12 21.2275 12 22.5V24C12 24.2652 12.1054 24.5196 12.2929 24.7071C12.4805 24.8947 12.7348 25 13 25H14.5C14.6326 25 14.7598 24.9474 14.8536 24.8536C14.9474 24.7598 15 24.6326 15 24.5V17.1763C15.0001 17.0752 14.9694 16.9764 14.9122 16.8931C14.855 16.8097 14.7738 16.7457 14.6794 16.7094C14.102 16.4738 13.5534 16.1729 13.0444 15.8125C12.93 15.7395 12.8317 15.6439 12.7554 15.5317C12.6792 15.4194 12.6266 15.2928 12.6008 15.1596C12.575 15.0263 12.5767 14.8892 12.6056 14.7566C12.6345 14.624 12.6901 14.4987 12.769 14.3883C12.8479 14.2779 12.9485 14.1847 13.0645 14.1144C13.1806 14.0441 13.3098 13.9981 13.4442 13.9793C13.5786 13.9606 13.7154 13.9693 13.8463 14.0051C13.9772 14.0409 14.0995 14.103 14.2057 14.1875C14.6682 14.515 15.5588 15 16 15C16.4413 15 17.3319 14.5138 17.7957 14.1875C18.0116 14.0518 18.2712 14.0037 18.5215 14.053C18.7717 14.1024 18.9936 14.2455 19.1418 14.4531C19.29 14.6607 19.3532 14.9171 19.3186 15.1698C19.284 15.4225 19.1542 15.6524 18.9557 15.8125C18.4466 16.1723 17.898 16.4726 17.3207 16.7075C17.2263 16.7438 17.1451 16.8078 17.0879 16.8912C17.0306 16.9745 17 17.0733 17 17.1744V24.5C17 24.6326 17.0527 24.7598 17.1465 24.8536C17.2402 24.9474 17.3674 25 17.5 25H19C19.2652 25 19.5196 24.8947 19.7071 24.7071C19.8947 24.5196 20 24.2652 20 24V22.5C20 21.2575 21.5225 19.8169 22.6344 18.7644L22.9413 18.4732C24.9425 16.5625 26 13.9757 26 11C26.0066 9.68581 25.7528 8.3833 25.2531 7.16776C24.7534 5.95222 24.0178 4.84775 23.0888 3.91815Z" fill="white"/>
</svg>
