<svg width="35" height="35" viewBox="0 0 35 35" fill="none" xmlns="http://www.w3.org/2000/svg">
<path d="M32.8125 13.9453C32.8125 23.5156 18.6225 31.2621 18.0182 31.582C17.8589 31.6677 17.6809 31.7126 17.5 31.7126C17.3191 31.7126 17.1411 31.6677 16.9818 31.582C16.3775 31.2621 2.1875 23.5156 2.1875 13.9453C2.19003 11.698 3.08391 9.54339 4.67303 7.95428C6.26214 6.36516 8.41672 5.47128 10.6641 5.46875C13.4873 5.46875 15.9592 6.68281 17.5 8.73496C19.0408 6.68281 21.5127 5.46875 24.3359 5.46875C26.5833 5.47128 28.7379 6.36516 30.327 7.95428C31.9161 9.54339 32.81 11.698 32.8125 13.9453Z" fill="white"/>
</svg>
