<svg width="30" height="24" viewBox="0 0 30 24" fill="none" xmlns="http://www.w3.org/2000/svg">
<g clip-path="url(#clip0_17_105)">
<path d="M5.99985 4.5C7.24204 4.5 8.24985 3.49219 8.24985 2.25C8.24985 1.00781 7.24204 0 5.99985 0C4.75766 0 3.74985 1.00781 3.74985 2.25C3.74985 3.49219 4.75766 4.5 5.99985 4.5ZM23.9998 4.5C25.242 4.5 26.2498 3.49219 26.2498 2.25C26.2498 1.00781 25.242 0 23.9998 0C22.7577 0 21.7498 1.00781 21.7498 2.25C21.7498 3.49219 22.7577 4.5 23.9998 4.5ZM29.892 21.9422L27.8295 16.7859L25.903 18.9609L25.8092 19.8141L27.1077 23.0578C27.342 23.6437 27.9045 24 28.4998 24C28.6873 24 28.8748 23.9672 29.0577 23.8922C29.8264 23.5828 30.2014 22.7109 29.892 21.9422ZM28.2889 12.1078L27.4217 8.34844C27.2061 7.41094 26.5498 6.62344 25.6639 6.24375C24.7967 5.86875 23.8358 5.92969 23.0342 6.39844C21.9702 7.02656 21.1733 8.01562 20.7795 9.18281L20.2498 10.7719L19.4998 11.25V6.75C19.4998 6.3375 19.1623 6 18.7498 6H11.2498C10.8373 6 10.4998 6.3375 10.4998 6.75V11.25L9.74516 10.7719L9.21547 9.18281C8.82641 8.01094 8.02485 7.02656 6.96079 6.39844C6.15454 5.92969 5.19829 5.86875 4.3311 6.24375C3.44516 6.62344 2.78891 7.41094 2.57329 8.34844L1.71079 12.1078C1.49516 13.0453 1.7436 14.0391 2.38579 14.7656L5.53578 18.3234L6.00922 22.6641C6.0936 23.4281 6.74047 24 7.49985 24C7.5561 24 7.60766 23.9953 7.66391 23.9906C8.48891 23.9016 9.07954 23.1609 8.99047 22.3359L8.51704 17.9859C8.44672 17.3766 8.1936 16.8094 7.78579 16.3453L5.7561 14.0484L6.5811 10.7531L6.89985 11.7094C7.09204 12.2953 7.45766 12.8062 8.04829 13.2375L10.4436 14.7609C10.6592 14.8969 11.0108 14.9766 11.2498 14.9953H18.7498C18.9889 14.9766 19.3405 14.8969 19.5561 14.7609L21.9514 13.2375C22.542 12.8062 22.9077 12.3 23.0998 11.7094L23.4186 10.7531L24.2436 14.0484L22.2139 16.3453C21.8061 16.8094 21.553 17.3766 21.4827 17.9859L21.0092 22.3359C20.9202 23.1609 21.5155 23.9016 22.3358 23.9906C22.392 23.9953 22.4436 24 22.4998 24C23.2545 24 23.9061 23.4328 23.9905 22.6641L24.4639 18.3234L27.6139 14.7656C28.2514 14.0391 28.5045 13.0453 28.2889 12.1078ZM2.17016 16.7859L0.10766 21.9422C-0.201715 22.7109 0.173285 23.5828 0.942035 23.8922C1.72953 24.2016 2.58735 23.8125 2.89204 23.0578L4.19047 19.8141L4.09672 18.9609L2.17016 16.7859Z" fill="white"/>
</g>
<defs>
<clipPath id="clip0_17_105">
<rect width="30" height="24" fill="white"/>
</clipPath>
</defs>
</svg>
