<svg width="30" height="30" viewBox="0 0 30 30" fill="none" xmlns="http://www.w3.org/2000/svg">
<path d="M25.625 13.75H23.75V8.75C23.75 8.08696 23.4866 7.45107 23.0178 6.98223C22.5489 6.51339 21.913 6.25 21.25 6.25H16.25V4.375C16.25 3.5462 15.9208 2.75134 15.3347 2.16529C14.7487 1.57924 13.9538 1.25 13.125 1.25C12.2962 1.25 11.5013 1.57924 10.9153 2.16529C10.3292 2.75134 10 3.5462 10 4.375V6.25H5C4.33696 6.25 3.70107 6.51339 3.23223 6.98223C2.76339 7.45107 2.5 8.08696 2.5 8.75V13.5H4.375C6.25 13.5 7.75 15 7.75 16.875C7.75 18.75 6.25 20.25 4.375 20.25H2.5V25C2.5 25.663 2.76339 26.2989 3.23223 26.7678C3.70107 27.2366 4.33696 27.5 5 27.5H9.75V25.625C9.75 23.75 11.25 22.25 13.125 22.25C15 22.25 16.5 23.75 16.5 25.625V27.5H21.25C21.913 27.5 22.5489 27.2366 23.0178 26.7678C23.4866 26.2989 23.75 25.663 23.75 25V20H25.625C26.4538 20 27.2487 19.6708 27.8347 19.0847C28.4208 18.4987 28.75 17.7038 28.75 16.875C28.75 16.0462 28.4208 15.2513 27.8347 14.6653C27.2487 14.0792 26.4538 13.75 25.625 13.75Z" fill="white"/>
</svg>
